# xmcd
# Copyright (c) 1998 CDDB Inc.
#
# Track frame offsets:
#	150
#	9690
#	22917
#	33500
#	44635
#	59035
#	70930
#	82377
#	97100
#	108695
#	123637
#	136512
#	148502
#	163312
#	174177
#	188205
#	201682
#	214820
#	225650
#	238612
#
# Disc length: 3353 seconds
#
# Revision: 0
# Processed by: cddbd v1.5.1PL0 Copyright (c) Steve Scherf et al.
# Submitted via: audiograbber 1.70
#
DISCID=330d1714
DTITLE=Frankie Laine - Frankie Laine Collection
DYEAR=1900
DGENRE=
TTITLE0=Rawhide
TTITLE1=Moonlight Gambler
TTITLE2=I Believe
TTITLE3=Hummingbird
TTITLE4=Don't Fence Me In
TTITLE5=Strange Lady In Town
TTITLE6=Rose, Rose, I Love You
TTITLE7=There Must Be A Reason
TTITLE8=Answer Me
TTITLE9=Jezebel
TTITLE10=High Noon
TTITLE11=Mule Train
TTITLE12=Jealousy
TTITLE13=Sixteen Tons
TTITLE14=Still Runs Cool Water
TTITLE15=Wheel Of Fortune
TTITLE16=Rain, Rain, Rain
TTITLE17=A Women In Love
TTITLE18=Granada
TTITLE19=Cry Of The Wild Goose
EXTD=
EXTT0=
EXTT1=
EXTT2=
EXTT3=
EXTT4=
EXTT5=
EXTT6=
EXTT7=
EXTT8=
EXTT9=
EXTT10=
EXTT11=
EXTT12=
EXTT13=
EXTT14=
EXTT15=
EXTT16=
EXTT17=
EXTT18=
EXTT19=
PLAYORDER=
